<svg xmlns="http://www.w3.org/2000/svg" width="100%" height="100%" viewBox="0 0 512 512"><defs><linearGradient id="bgGrad" x1="0%" x2="100%" y1="0%" y2="100%"><stop offset="0%" stop-color="#1e293b"/><stop offset="50%" stop-color="#0f172a"/><stop offset="100%" stop-color="#020617"/></linearGradient><linearGradient id="logoGrad" x1="0%" x2="100%" y1="0%" y2="100%"><stop offset="0%" stop-color="#38bdf8"/><stop offset="50%" stop-color="#3b82f6"/><stop offset="100%" stop-color="#6366f1"/></linearGradient><filter id="glow" width="140%" height="140%" x="-20%" y="-20%"><feGaussianBlur result="blur" stdDeviation="16"/><feComposite in="SourceGraphic" in2="blur" operator="over"/></filter></defs><rect width="464" height="464" x="24" y="24" fill="url(#bgGrad)" stroke="#38bdf8" stroke-opacity=".4" stroke-width="8" rx="128"/><rect width="432" height="432" x="40" y="40" fill="none" stroke="#fff" stroke-opacity=".1" stroke-width="2" rx="112"/><g filter="url(#glow)"><path fill="url(#logoGrad)" d="M 160 360 L 160 170 C 160 140, 200 140, 220 170 L 256 230 L 292 170 C 312 140, 352 140, 352 170 L 352 360 A 20 20 0 0 1 312 360 L 312 210 L 272 275 C 264 288, 248 288, 240 275 L 200 210 L 200 360 A 20 20 0 0 1 160 360 Z"/><circle cx="256" cy="350" r="28" fill="#38bdf8"/></g></svg>